<svg width="51" height="37" viewBox="0 0 51 37" fill="none" xmlns="http://www.w3.org/2000/svg">
<circle cx="25.5" cy="11.1562" r="4.78125" fill="#001C73"/>
<path d="M46.1684 12.75C43.4843 16.7344 37.3105 22.3125 32.4789 22.3125C32.4789 19.125 30.0632 9.5625 34.8948 4.78125C39.7263 0.796875 48.3316 0 51 0C50.1947 7.17188 47.7789 10.3594 46.1684 12.75Z" fill="#001C73"/>
<path d="M4.83158 12.75C7.51571 16.7344 13.6895 22.3125 18.5211 22.3125C18.5211 19.125 20.9368 9.5625 16.1052 4.78125C11.2737 0.796875 2.66841 0 0 0C0.805264 7.17188 3.2211 10.3594 4.83158 12.75Z" fill="#001C73"/>
<path d="M36.6562 28.6877C34.4249 32.6721 32.9374 35.8596 26.2437 36.6565C21.7812 36.6565 16.5749 35.0627 14.3437 28.6877C16.5749 26.2971 15.8312 27.094 18.8062 23.9066C20.2937 29.4846 24.0056 30.2815 26.2437 30.2815C27.7312 30.2815 30.7062 29.4846 32.1937 23.9065C34.4249 26.2971 34.4249 26.2971 36.6562 28.6877Z" fill="#001C73"/>
</svg>
